<svg xmlns="http://www.w3.org/2000/svg" viewBox="0 0 390 844" preserveAspectRatio="xMidYMid slice">
  <rect width="390" height="844" fill="#FFFCEB"/>
  <g stroke="#F4F0E0" stroke-width="1">
    <path d="M0 100 L390 100 M0 200 L390 200 M0 300 L390 300 M0 400 L390 400 M0 500 L390 500 M0 600 L390 600 M0 700 L390 700"/>
    <path d="M50 0 L50 844 M130 0 L130 844 M210 0 L210 844 M290 0 L290 844 M370 0 L370 844"/>
  </g>
  <path d="M0 480 Q 100 440 200 470 T 390 460 L 390 510 Q 290 530 200 510 T 0 530 Z"
        fill="#B5E48C" stroke="#2A2A2A" stroke-width="2.5"/>
  <path d="M40 200 L150 180 L160 350 L80 380 Z" fill="none" stroke="#2A2A2A" stroke-width="1.5" stroke-dasharray="4 4"/>
  <path d="M180 150 L300 170 L310 340 L200 360 Z" fill="none" stroke="#2A2A2A" stroke-width="1.5" stroke-dasharray="4 4"/>
  <path d="M30 560 L160 580 L170 760 L40 740 Z" fill="none" stroke="#2A2A2A" stroke-width="1.5" stroke-dasharray="4 4"/>
  <path d="M200 580 L340 590 L340 770 L200 770 Z" fill="none" stroke="#2A2A2A" stroke-width="1.5" stroke-dasharray="4 4"/>
  <text x="80" y="290" font-family="Pretendard, sans-serif" font-size="14" fill="#6B6B6B" font-weight="700">서북</text>
  <text x="240" y="270" font-family="Pretendard, sans-serif" font-size="14" fill="#6B6B6B" font-weight="700">서울 도심</text>
  <text x="80" y="680" font-family="Pretendard, sans-serif" font-size="14" fill="#6B6B6B" font-weight="700">서남</text>
  <text x="250" y="690" font-family="Pretendard, sans-serif" font-size="14" fill="#6B6B6B" font-weight="700">동남</text>
</svg>
